<?xml version="1.0" encoding="UTF-8"?>
<svg viewBox="0 0 1400 900" xmlns="http://www.w3.org/2000/svg">
  <defs>
    <linearGradient id="headerGradient" x1="0%" y1="0%" x2="100%" y2="0%">
      <stop offset="0%" style="stop-color:#FF9900;stop-opacity:1" />
      <stop offset="100%" style="stop-color:#232F3E;stop-opacity:1" />
    </linearGradient>
    <filter id="shadow" x="-20%" y="-20%" width="140%" height="140%">
      <feDropShadow dx="2" dy="2" stdDeviation="3" flood-color="#00000040"/>
    </filter>
    <marker id="arrowhead" markerWidth="10" markerHeight="7" refX="9" refY="3.5" orient="auto">
      <polygon points="0 0, 10 3.5, 0 7" fill="#4A90E2" />
    </marker>
    
    <!-- AWS Icon Definitions -->
    <!-- Route53 Icon -->
    <g id="route53-icon">
      <rect width="64" height="64" fill="#8C4FFF"/>
      <path d="M48.692,40.6795109 C49.431,41.3627732 49.801,42.2781246 49.801,43.4275659 C49.801,44.678046 49.351,45.6764293 48.452,46.4227159 C47.552,47.1700028 46.343,47.543146 44.826,47.543146 C43.627,47.543146 42.44,47.2870477 41.266,46.7768518 L41.266,45.2452638 C42.657,45.7054405 43.843,45.9345284 44.826,45.9345284 C45.796,45.9345284 46.542,45.7174451 47.065,45.2842788 C47.588,44.8501121 47.849,44.2308744 47.849,43.4275659 C47.849,41.8829729 46.874,41.1106764 44.921,41.1106764 C44.309,41.1106764 43.703,41.1426887 43.103,41.2057129 L43.103,39.9432282 L47.123,35.5585448 L41.458,35.5585448 L41.458,33.9889422 L49.247,33.9889422 L49.247,35.5015229 L45.304,39.6751253 C45.369,39.6621203 45.431,39.656118 45.496,39.656118 L45.687,39.656118 C46.951,39.656118 47.952,39.9972489 48.692,40.6795109 M37.574,40.3453826 C38.351,41.0726618 38.74,42.0740463 38.74,43.349536 C38.74,44.6010165 38.288,45.6124048 37.381,46.3847013 C36.475,47.1569978 35.283,47.543146 33.803,47.543146 C32.503,47.543146 31.284,47.2870477 30.148,46.7768518 L30.148,45.2452638 C31.564,45.7054405 32.776,45.9345284 33.784,45.9345284 C34.754,45.9345284 35.497,45.7154443 36.013,45.2742749 C36.53,44.834106 36.789,44.1998624 36.789,43.3695437 C36.789,42.4631957 36.546,41.8059434 36.061,41.3977867 C35.576,40.9896299 34.785,40.7845512 33.688,40.7845512 C32.897,40.7845512 31.909,40.8495762 30.722,40.976625 L30.722,39.7131399 L31.086,33.9889422 L38.071,33.9889422 L38.071,35.5585448 L32.693,35.5585448 L32.444,39.4450369 C33.146,39.3179882 33.777,39.2539636 34.338,39.2539636 C35.716,39.2539636 36.795,39.617103 37.574,40.3453826 M51.957,54.37777 C47.103,55.250105 42.852,57.2268639 40,58.8374822 C37.147,57.2268639 32.896,55.250105 28.043,54.37777 C26.677,54.1326759 19.869,52.7111302 19.869,48.7756192 C19.869,46.951919 20.522,45.7424547 21.776,43.5826255 C23.274,40.9996338 25.138,37.7843994 25.138,33.1556222 C25.138,29.8473521 24.271,26.6751342 22.559,23.7149977 C22.76,23.4669025 22.965,23.2158061 23.171,22.9627089 C25.707,24.2301955 28.347,24.8724421 31.031,24.8724421 C34.311,24.8724421 37.325,24.0111114 40,22.3114589 C42.674,24.0111114 45.688,24.8724421 48.968,24.8724421 C51.652,24.8724421 54.293,24.2301955 56.829,22.9627089 C57.034,23.2158061 57.239,23.4669025 57.44,23.7149977 C55.728,26.6751342 54.861,29.8473521 54.861,33.1556222 C54.861,37.7843994 56.725,40.9996338 58.226,43.586627 C59.477,45.7424547 60.13,46.951919 60.13,48.7756192 C60.13,52.7111302 53.322,54.1326759 51.957,54.37777 M56.861,33.1556222 C56.861,29.9974097 57.752,26.9702475 59.507,24.1581679 C59.735,23.7950284 59.706,23.3278491 59.434,22.9957216 C58.926,22.3734827 58.393,21.7182311 57.867,21.0669811 C57.562,20.6898363 57.032,20.5857963 56.606,20.8198862 C54.143,22.1814089 51.574,22.8716739 48.968,22.8716739 C45.824,22.8716739 43.077,22.0263494 40.569,20.2886823 C40.227,20.0515912 39.772,20.0515912 39.43,20.2886823 C36.922,22.0263494 34.175,22.8716739 31.031,22.8716739 C28.425,22.8716739 25.856,22.1814089 23.393,20.8198862 C22.968,20.5857963 22.437,20.6898363 22.132,21.0669811 C21.606,21.7182311 21.073,22.3734827 20.565,22.9957216 C20.294,23.3278491 20.264,23.7950284 20.492,24.1581679 C22.248,26.9702475 23.138,29.9974097 23.138,33.1556222 C23.138,37.2461927 21.423,40.2023277 20.045,42.581241 C18.695,44.9041328 17.869,46.4467251 17.869,48.7756192 C17.869,54.1646882 25.385,55.9343677 27.689,56.3475263 C32.549,57.2208616 36.793,59.2806524 39.497,60.8542565 C39.652,60.9452915 39.826,60.9903088 40,60.9903088 C40.173,60.9903088 40.347,60.9452915 40.503,60.8542565 C43.207,59.2806524 47.45,57.2208616 52.31,56.3475263 C54.614,55.9343677 62.13,54.1646882 62.13,48.7756192 C62.13,46.4467251 61.304,44.9041328 59.954,42.5782399 C58.576,40.2023277 56.861,37.2461927 56.861,33.1556222 M52.994,60.1569888 C46.863,61.2594121 41.723,64.556678 40,65.7641416 C38.276,64.556678 33.136,61.2594121 27.005,60.1569888 C14.937,57.9891566 14,50.8974338 14,48.7756192 C14,45.2852792 15.371,42.9233724 16.697,40.6374948 C17.961,38.4596586 19.268,36.2067937 19.268,33.1556222 C19.268,28.3357718 16.485,24.9314648 15.112,23.5459328 C16.556,21.7892584 20.204,17.3415508 22.003,15.0236609 C24.729,17.5966487 27.898,19.0001876 31.031,19.0001876 C34.509,19.0001876 37.385,17.5846441 40,14.5644846 C42.614,17.5846441 45.49,19.0001876 48.968,19.0001876 C52.101,19.0001876 55.27,17.5966487 57.997,15.0236609 C59.796,17.3415508 63.443,21.7892584 64.887,23.5459328 C63.514,24.9314648 60.731,28.3357718 60.731,33.1556222 C60.731,36.2067937 62.039,38.4596586 63.302,40.6374948 C64.629,42.9233724 66,45.2852792 66,48.7756192 C66,50.8974338 65.062,57.9891566 52.994,60.1569888 M65.032,39.6341095 C63.797,37.5052922 62.731,35.6675867 62.731,33.1556222 C62.731,27.867592 66.847,24.4472789 66.887,24.4152666 C67.094,24.2472021 67.226,24.0031083 67.254,23.7370062 C67.28,23.470904 67.2,23.2058022 67.03,22.9997231 C66.963,22.9196924 60.408,14.9726413 58.906,12.9138509 C58.73,12.6727583 58.457,12.5227007 58.159,12.5046938 C57.86,12.4826853 57.572,12.601731 57.368,12.8198148 C54.848,15.5148495 51.866,16.9994194 48.968,16.9994194 C45.764,16.9994194 43.244,15.5718713 40.794,12.3706423 C40.415,11.8764526 39.585,11.8764526 39.206,12.3706423 C36.755,15.5718713 34.235,16.9994194 31.031,16.9994194 C28.133,16.9994194 25.151,15.5148495 22.631,12.8198148 C22.427,12.601731 22.137,12.4776834 21.84,12.5046938 C21.543,12.5227007 21.269,12.6727583 21.093,12.9138509 C19.591,14.9726413 13.036,22.9196924 12.969,22.9997231 C12.8,23.2058022 12.72,23.470904 12.747,23.7360058 C12.773,24.0011076 12.904,24.2452013 13.11,24.4132658 C13.152,24.4472789 17.268,27.867592 17.268,33.1556222 C17.268,35.6675867 16.202,37.5052922 14.967,39.6341095 C13.576,42.0310298 12,44.7470725 12,48.7756192 C12,55.487196 17.477,60.4781121 26.652,62.1267451 C33.559,63.3682217 39.334,67.7489036 39.391,67.7939209 C39.57,67.9309735 39.785,68 40,68 C40.214,68 40.429,67.9309735 40.609,67.7929205 C40.667,67.7489036 46.422,63.3712229 53.347,62.1267451 C62.522,60.4781121 68,55.487196 68,48.7756192 C68,44.7470725 66.423,42.0310298 65.032,39.6341095" fill="#FFFFFF"/>
    </g>
    
    <!-- CloudFront Icon -->
    <g id="cloudfront-icon">
      <rect width="64" height="64" fill="#8C4FFF"/>
      <path d="M55.122,52.123 C55.122,50.469 53.776,49.123 52.122,49.123 C50.468,49.123 49.122,50.469 49.122,52.123 C49.122,53.777 50.468,55.123 52.122,55.123 C53.776,55.123 55.122,53.777 55.122,52.123 L55.122,52.123 Z M57.122,52.123 C57.122,54.88 54.879,57.123 52.122,57.123 C49.365,57.123 47.122,54.88 47.122,52.123 C47.122,49.366 49.365,47.123 52.122,47.123 C54.879,47.123 57.122,49.366 57.122,52.123 L57.122,52.123 Z M30.392,37.692 C30.392,36.038 29.046,34.692 27.392,34.692 C25.737,34.692 24.392,36.038 24.392,37.692 C24.392,39.346 25.737,40.692 27.392,40.692 C29.046,40.692 30.392,39.346 30.392,37.692 L30.392,37.692 Z M32.392,37.692 C32.392,40.449 30.148,42.692 27.392,42.692 C24.635,42.692 22.392,40.449 22.392,37.692 C22.392,34.935 24.635,32.692 27.392,32.692 C30.148,32.692 32.392,34.935 32.392,37.692 L32.392,37.692 Z M39.73,22.007 C39.73,23.661 41.076,25.007 42.73,25.007 C44.385,25.007 45.73,23.661 45.73,22.007 C45.73,20.352 44.385,19.007 42.73,19.007 C41.076,19.007 39.73,20.352 39.73,22.007 L39.73,22.007 Z M37.73,22.007 C37.73,19.25 39.974,17.007 42.73,17.007 C45.487,17.007 47.73,19.25 47.73,22.007 C47.73,24.764 45.487,27.007 42.73,27.007 C39.974,27.007 37.73,24.764 37.73,22.007 L37.73,22.007 Z M66,40 C66,30.727 61.028,22.148 53.012,17.509 C51.575,17.799 50.185,18.196 48.451,18.823 L47.771,16.942 C48.676,16.616 49.486,16.352 50.266,16.126 C47.046,14.737 43.548,14 40,14 C38.311,14 36.649,14.175 35.025,14.492 C36.201,15.18 37.244,15.866 38.257,16.634 L37.048,18.227 C35.62,17.145 34.14,16.228 32.197,15.21 C22.378,18.298 15.306,26.958 14.183,37.128 C16.242,36.711 18.219,36.484 20.414,36.43 L20.463,38.429 C18.163,38.486 16.187,38.73 14.027,39.205 C14.018,39.47 14,39.738 14,40 C14,48.658 18.283,56.636 25.327,61.447 C24.074,57.716 23.45,54.19 23.45,50.746 C23.45,48.782 23.788,47.169 24.145,45.462 C24.228,45.067 24.312,44.665 24.394,44.248 L26.357,44.635 C26.273,45.059 26.187,45.47 26.103,45.873 C25.753,47.545 25.45,48.989 25.45,50.746 C25.45,54.654 26.308,58.695 28.054,63.083 C31.773,65.014 35.789,66 40,66 C42.756,66 45.446,65.56 48.012,64.714 C49.019,62.727 49.766,60.852 50.39,58.699 L52.311,59.256 C51.855,60.826 51.332,62.253 50.709,63.677 C52.323,62.951 53.85,62.053 55.283,61.005 C54.938,60.159 54.568,59.318 54.159,58.499 L55.948,57.604 C56.296,58.3 56.615,59.012 56.92,59.728 C62.705,54.775 66,47.66 66,40 L66,40 Z M68,40 C68,48.727 64.034,56.799 57.121,62.149 C55.409,63.479 53.552,64.583 51.589,65.472 C50.756,65.85 49.908,66.2 49.036,66.494 C46.156,67.493 43.113,68 40,68 C35.4,68 30.832,66.854 26.788,64.686 C17.667,59.806 12,50.347 12,40 C12,39.314 12.018,38.792 12.059,38.309 C12.74,26.625 20.756,16.512 32.001,13.166 C34.562,12.393 37.255,12 40,12 C44.808,12 49.539,13.238 53.684,15.579 C62.513,20.525 68,29.884 68,40 L68,40 Z M37.314,25.463 L36,23.956 C33.758,25.912 32.014,27.989 29.977,31.126 L31.655,32.215 C33.583,29.244 35.223,27.288 37.314,25.463 L37.314,25.463 Z M34.275,38.427 L33.625,40.318 C38.218,41.895 42.225,44.411 46.234,48.236 L47.615,46.789 C43.389,42.758 39.15,40.101 34.275,38.427 L34.275,38.427 Z M47.646,26.668 C51.398,32.39 53.511,38.671 53.925,45.338 L51.929,45.462 C51.536,39.146 49.533,33.192 45.975,27.765 L47.646,26.668 Z" fill="#FFFFFF"/>
    </g>
    
    <!-- S3 Icon -->
    <g id="s3-icon">
      <rect width="64" height="64" fill="#7AA116"/>
      <path d="M47.836,30.893 L48.22,28.189 C51.761,30.31 51.807,31.186 51.8060132,31.21 C51.8,31.215 51.196,31.719 47.836,30.893 L47.836,30.893 Z M45.893,30.353 C39.773,28.501 31.25,24.591 27.801,22.961 C27.801,22.947 27.805,22.934 27.805,22.92 C27.805,21.595 26.727,20.517 25.401,20.517 C24.077,20.517 22.999,21.595 22.999,22.92 C22.999,24.245 24.077,25.323 25.401,25.323 C25.983,25.323 26.511,25.106 26.928,24.761 C30.986,26.682 39.443,30.535 45.608,32.355 L43.17,49.561 C43.163,49.608 43.16,49.655 43.16,49.702 C43.16,51.217 36.453,54 25.494,54 C14.419,54 7.641,51.217 7.641,49.702 C7.641,49.656 7.638,49.611 7.632,49.566 L2.538,12.359 C6.947,15.394 16.43,17 25.5,17 C34.556,17 44.023,15.4 48.441,12.374 L45.893,30.353 Z M2,8.478 C2.072,7.162 9.634,2 25.5,2 C41.364,2 48.927,7.161 49,8.478 L49,8.927 C48.13,11.878 38.33,15 25.5,15 C12.648,15 2.843,11.868 2,8.913 L2,8.478 Z M51,8.5 C51,5.035 41.066,0 25.5,0 C9.934,0 0,5.035 0,8.5 L0.094,9.254 L5.642,49.778 C5.775,54.31 17.861,56 25.494,56 C34.966,56 45.029,53.822 45.159,49.781 L47.555,32.884 C48.888,33.203 49.985,33.366 50.866,33.366 C52.049,33.366 52.849,33.077 53.334,32.499 C53.732,32.025 53.884,31.451 53.77,30.84 C53.511,29.456 51.868,27.964 48.522,26.055 L50.898,9.293 L51,8.5 Z" fill="#FFFFFF" transform="translate(6.5, 4)"/>
    </g>
    
    <!-- ACM Icon -->
    <g id="acm-icon">
      <rect width="64" height="64" fill="#DD344C"/>
      <path d="M35.694,39.281 C35.944,39.522 36.05,39.874 35.977,40.213 L34.952,44.922 L39.477,42.148 C39.798,41.95 40.202,41.95 40.524,42.149 L45.016,44.916 L44.021,40.199 C43.951,39.864 44.056,39.517 44.3,39.278 L48.339,35.324 L43.073,34.564 C42.745,34.516 42.463,34.31 42.317,34.013 L39.991,29.251 L37.61,34.025 C37.465,34.318 37.184,34.521 36.86,34.568 L31.609,35.335 L35.694,39.281 Z M32.499,46.787 L33.904,40.332 L28.756,35.359 C28.481,35.094 28.382,34.697 28.498,34.333 C28.615,33.97 28.928,33.705 29.305,33.651 L36.053,32.664 L39.105,26.545 C39.274,26.205 39.594,25.971 40.004,25.991 C40.384,25.993 40.731,26.211 40.898,26.552 L43.882,32.66 L50.626,33.635 C51.003,33.689 51.315,33.952 51.433,34.314 C51.551,34.676 51.455,35.073 51.182,35.339 L46.091,40.323 L47.454,46.783 C47.536,47.175 47.378,47.578 47.05,47.808 C46.724,48.038 46.292,48.051 45.951,47.842 L39.999,44.174 L33.999,47.852 C33.839,47.951 33.657,48 33.476,48 C33.273,48 33.07,47.938 32.897,47.815 C32.571,47.583 32.414,47.178 32.499,46.787 L32.499,46.787 Z M14,21.021 L66,21.021 L66,16 L14,16 L14,21.021 Z M68,15 L68,65 C68,65.552 67.552,66 67,66 L61,66 L61,64 L66,64 L66,23.022 L14,23.022 L14,64 L52,64 L52,66 L13,66 C12.447,66 12,65.552 12,65 L12,15 C12,14.448 12.447,14 13,14 L67,14 C67.552,14 68,14.448 68,15 L68,15 Z M24,59 L30,59 L30,57 L24,57 L24,59 Z M34,59 L48,59 L48,57 L34,57 L34,59 Z M24,54 L30,54 L30,52 L24,52 L24,54 Z M34,54 L56,54 L56,52 L34,52 L34,54 Z" fill="#FFFFFF" transform="translate(8, 8)"/>
    </g>
    
    <!-- IAM Icon -->
    <g id="iam-icon">
      <rect width="64" height="64" fill="#DD344C"/>
      <path d="M67.438,62.3245478 L52.56,47.4465478 C52.251,47.1385478 52.178,46.6655478 52.379,46.2795478 C54.457,42.2765478 53.659,37.2315478 50.439,34.0115478 C48.143,31.7155478 44.972,30.6245478 41.748,31.0125478 C38.518,31.4035478 35.67,33.2675478 33.936,36.1285478 C31.898,39.4875478 31.989,43.7965478 34.166,47.1075478 C37.187,51.7025478 43.076,53.2915478 47.864,50.8085478 C48.251,50.6085478 48.722,50.6805478 49.032,50.9895478 L51.5,53.4575478 C51.687,53.6445478 51.792,53.8995478 51.792,54.1645478 L51.792,57.4075478 L55.035,57.4075478 C55.299,57.4075478 55.554,57.5125478 55.742,57.6995478 L57.157,59.1135478 C57.344,59.3015478 57.45,59.5555478 57.45,59.8215478 L57.45,63.0635478 L60.692,63.0635478 C60.958,63.0635478 61.211,63.1695478 61.399,63.3565478 L63.254,65.2125478 L67.196,65.4755478 L67.438,62.3245478 Z M69.467,62.0195478 L69.114,66.6155478 C69.074,67.1395478 68.636,67.5385478 68.118,67.5385478 C68.095,67.5385478 68.073,67.5385478 68.05,67.5365478 L62.747,67.1825478 C62.504,67.1665478 62.277,67.0635478 62.106,66.8925478 L60.278,65.0635478 L56.45,65.0635478 C55.897,65.0635478 55.45,64.6165478 55.45,64.0635478 L55.45,60.2355478 L54.621,59.4075478 L50.792,59.4075478 C50.24,59.4075478 49.792,58.9595478 49.792,58.4075478 L49.792,54.5785478 L48.12,52.9055478 C42.546,55.3915478 35.941,53.4495478 32.494,48.2065478 C29.896,44.2545478 29.791,39.1065478 32.225,35.0915478 C34.281,31.7015478 37.665,29.4915478 41.507,29.0275478 C45.349,28.5655478 49.12,29.8645478 51.853,32.5975478 C55.506,36.2505478 56.536,41.8835478 54.475,46.5335478 L69.177,61.2355478 C69.383,61.4425478 69.49,61.7285478 69.467,62.0195478 L69.467,62.0195478 Z M45.423,41.3455478 C45.423,40.6775478 45.163,40.0495478 44.69,39.5775478 C44.217,39.1045478 43.589,38.8445478 42.922,38.8445478 C42.255,38.8445478 41.627,39.1045478 41.155,39.5765478 C40.18,40.5515478 40.18,42.1375478 41.155,43.1125478 C42.129,44.0875478 43.715,44.0875478 44.69,43.1125478 L44.69,43.1125478 C45.163,42.6395478 45.423,42.0125478 45.423,41.3455478 L45.423,41.3455478 Z M46.104,38.1625478 C46.955,39.0125478 47.423,40.1425478 47.423,41.3455478 C47.423,42.5465478 46.955,43.6765478 46.104,44.5265478 L46.104,44.5275478 C45.227,45.4045478 44.075,45.8425478 42.922,45.8425478 C41.77,45.8425478 40.618,45.4045478 39.741,44.5265478 C37.987,42.7715478 37.987,39.9165478 39.741,38.1625478 C40.59,37.3125478 41.72,36.8445478 42.922,36.8445478 C44.125,36.8445478 45.254,37.3125478 46.104,38.1625478 L46.104,38.1625478 Z M22.001,44.9215478 L28,44.9215478 L28,46.9215478 L22,46.9215478 C16.146,46.9085478 11.326,42.7565478 11.024,37.4675478 C11.011,37.2175478 11,36.9865478 11,36.7545478 C11,30.2305478 15.627,27.8055478 18.351,26.9445478 C18.333,26.6565478 18.324,26.3655478 18.324,26.0695478 C18.324,20.7195478 22.081,15.1815478 27.063,13.1885478 C32.87,10.8445478 39.028,12.0105478 43.526,16.3065478 C44.713,17.4265478 46.231,19.1005478 47.295,21.1415478 C48.431,20.1435478 49.714,19.6545478 51.183,19.6545478 C54.086,19.6545478 57.34,21.9905478 57.931,27.0965478 C63.95,28.4715478 67,31.7745478 67,36.9215478 C67,42.3485478 63.778,45.9895478 58.161,46.9085478 L57.838,44.9345478 C61.105,44.4005478 65,42.5755478 65,36.9215478 C65,32.5405478 62.397,29.9925478 56.808,28.9035478 C56.361,28.8155478 56.029,28.4365478 56.001,27.9815478 C55.777,24.2565478 53.795,21.6545478 51.183,21.6545478 C49.848,21.6545478 48.801,22.2345478 47.789,23.5355478 C47.566,23.8215478 47.209,23.9635478 46.848,23.9105478 C46.491,23.8555478 46.19,23.6115478 46.063,23.2725478 C45.191,20.9425478 43.454,18.9875478 42.15,17.7575478 C38.231,14.0155478 32.872,13.0035478 27.808,15.0445478 C23.61,16.7235478 20.324,21.5665478 20.324,26.0695478 C20.324,26.5745478 20.354,27.0605478 20.417,27.5545478 C20.421,27.5915478 20.423,27.6295478 20.424,27.6675478 L20.424,27.6695478 L20.424,27.6715478 L20.424,27.6735478 L20.424,27.6755478 L20.424,27.6755478 L20.424,27.6775478 L20.424,27.6775478 L20.424,27.6785478 L20.424,27.6795478 L20.424,27.6815478 C20.424,28.1865478 20.05,28.6085478 19.564,28.6775478 C17.065,29.3115478 13,31.1975478 13,36.7545478 C13,36.9515478 13.01,37.1485478 13.02,37.3375478 C13.262,41.5865478 17.208,44.9115478 22.001,44.9215478 L22.001,44.9215478 Z" fill="#FFFFFF" transform="translate(8, 8)"/>
    </g>
  </defs>
  
  <!-- Header -->
  <rect x="0" y="0" width="1400" height="70" fill="url(#headerGradient)"/>
  <text x="700" y="40" text-anchor="middle" fill="white" font-family="Arial, sans-serif" font-size="24" font-weight="bold">
    LawnSmartApp AWS Static Website Hosting Architecture
  </text>
  
  <!-- Internet/Users -->
  <rect x="50" y="120" width="120" height="80" rx="10" fill="#4A90E2" filter="url(#shadow)"/>
  <text x="110" y="150" text-anchor="middle" fill="white" font-family="Arial, sans-serif" font-size="12" font-weight="bold">Internet</text>
  <text x="110" y="170" text-anchor="middle" fill="white" font-family="Arial, sans-serif" font-size="11">Users</text>
  <text x="110" y="185" text-anchor="middle" fill="white" font-family="Arial, sans-serif" font-size="10">lawnsmartapp.com</text>
  
  <!-- Route53 with AWS Icon -->
  <rect x="250" y="120" width="120" height="80" rx="10" fill="#E8F4FD" stroke="#8C4FFF" stroke-width="2" filter="url(#shadow)"/>
  <use href="#route53-icon" x="278" y="135" width="32" height="32" transform="scale(0.4)"/>
  <text x="310" y="175" text-anchor="middle" fill="#333" font-family="Arial, sans-serif" font-size="12" font-weight="bold">Route53</text>
  <text x="310" y="190" text-anchor="middle" fill="#333" font-family="Arial, sans-serif" font-size="10">DNS Records</text>
  
  <!-- ACM Certificate with AWS Icon -->
  <rect x="250" y="250" width="120" height="80" rx="10" fill="#FFF0F0" stroke="#DD344C" stroke-width="2" filter="url(#shadow)"/>
  <use href="#acm-icon" x="278" y="265" width="32" height="32" transform="scale(0.4)"/>
  <text x="310" y="305" text-anchor="middle" fill="#333" font-family="Arial, sans-serif" font-size="12" font-weight="bold">ACM</text>
  <text x="310" y="320" text-anchor="middle" fill="#333" font-family="Arial, sans-serif" font-size="10">SSL Certificate</text>
  
  <!-- CloudFront with AWS Icon -->
  <rect x="450" y="120" width="120" height="80" rx="10" fill="#E8F4FD" stroke="#8C4FFF" stroke-width="2" filter="url(#shadow)"/>
  <use href="#cloudfront-icon" x="478" y="135" width="32" height="32" transform="scale(0.4)"/>
  <text x="510" y="175" text-anchor="middle" fill="#333" font-family="Arial, sans-serif" font-size="12" font-weight="bold">CloudFront</text>
  <text x="510" y="190" text-anchor="middle" fill="#333" font-family="Arial, sans-serif" font-size="10">CDN Distribution</text>
  
  <!-- Origin Access Control -->
  <rect x="450" y="250" width="120" height="80" rx="10" fill="#E8F4FD" stroke="#8C4FFF" stroke-width="2" filter="url(#shadow)"/>
  <text x="510" y="280" text-anchor="middle" fill="#333" font-family="Arial, sans-serif" font-size="12" font-weight="bold">OAC</text>
  <text x="510" y="300" text-anchor="middle" fill="#333" font-family="Arial, sans-serif" font-size="11">Origin Access</text>
  <text x="510" y="315" text-anchor="middle" fill="#333" font-family="Arial, sans-serif" font-size="10">Control</text>
  
  <!-- Primary Region (us-east-1) -->
  <rect x="650" y="90" width="300" height="280" rx="15" fill="#E8F4FD" stroke="#4A90E2" stroke-width="2" filter="url(#shadow)"/>
  <text x="800" y="115" text-anchor="middle" fill="#4A90E2" font-family="Arial, sans-serif" font-size="14" font-weight="bold">Primary Region (us-east-1)</text>
  
  <!-- Primary S3 Bucket with AWS Icon -->
  <rect x="680" y="140" width="120" height="80" rx="10" fill="#F0FFF0" stroke="#7AA116" stroke-width="2" filter="url(#shadow)"/>
  <use href="#s3-icon" x="708" y="155" width="32" height="32" transform="scale(0.4)"/>
  <text x="740" y="190" text-anchor="middle" fill="#333" font-family="Arial, sans-serif" font-size="12" font-weight="bold">S3 Primary</text>
  <text x="740" y="205" text-anchor="middle" fill="#333" font-family="Arial, sans-serif" font-size="10">Static Website</text>
  
  <!-- S3 Logs Bucket with AWS Icon -->
  <rect x="820" y="140" width="120" height="80" rx="10" fill="#F0FFF0" stroke="#7AA116" stroke-width="2" filter="url(#shadow)"/>
  <use href="#s3-icon" x="848" y="155" width="32" height="32" transform="scale(0.4)"/>
  <text x="880" y="190" text-anchor="middle" fill="#333" font-family="Arial, sans-serif" font-size="12" font-weight="bold">S3 Logs</text>
  <text x="880" y="205" text-anchor="middle" fill="#333" font-family="Arial, sans-serif" font-size="10">Access Logs</text>
  
  <!-- IAM Role with AWS Icon -->
  <rect x="680" y="270" width="120" height="80" rx="10" fill="#FFF0F0" stroke="#DD344C" stroke-width="2" filter="url(#shadow)"/>
  <use href="#iam-icon" x="708" y="285" width="32" height="32" transform="scale(0.4)"/>
  <text x="740" y="320" text-anchor="middle" fill="#333" font-family="Arial, sans-serif" font-size="12" font-weight="bold">IAM Role</text>
  <text x="740" y="335" text-anchor="middle" fill="#333" font-family="Arial, sans-serif" font-size="10">Replication</text>
  
  <!-- Secondary Region (us-west-1) -->
  <rect x="1020" y="90" width="300" height="280" rx="15" fill="#FFF2E8" stroke="#FF9900" stroke-width="2" filter="url(#shadow)"/>
  <text x="1170" y="115" text-anchor="middle" fill="#FF9900" font-family="Arial, sans-serif" font-size="14" font-weight="bold">Secondary Region (us-west-1)</text>
  
  <!-- Secondary S3 Bucket with AWS Icon -->
  <rect x="1050" y="140" width="120" height="80" rx="10" fill="#F0FFF0" stroke="#7AA116" stroke-width="2" filter="url(#shadow)"/>
  <use href="#s3-icon" x="1078" y="155" width="32" height="32" transform="scale(0.4)"/>
  <text x="1110" y="190" text-anchor="middle" fill="#333" font-family="Arial, sans-serif" font-size="12" font-weight="bold">S3 Failover</text>
  <text x="1110" y="205" text-anchor="middle" fill="#333" font-family="Arial, sans-serif" font-size="10">Replica</text>
  
  <!-- Security Features Box -->
  <rect x="50" y="420" width="1300" height="120" rx="15" fill="#F0F8FF" stroke="#4A90E2" stroke-width="2" filter="url(#shadow)"/>
  <text x="700" y="445" text-anchor="middle" fill="#4A90E2" font-family="Arial, sans-serif" font-size="16" font-weight="bold">Security &amp; Performance Features</text>
  
  <text x="80" y="470" fill="#333" font-family="Arial, sans-serif" font-size="12" font-weight="bold">Security:</text>
  <text x="80" y="490" fill="#333" font-family="Arial, sans-serif" font-size="11">• S3 Bucket Policies with CloudFront OAC</text>
  <text x="80" y="505" fill="#333" font-family="Arial, sans-serif" font-size="11">• SSL/TLS Certificate (ACM)</text>
  <text x="80" y="520" fill="#333" font-family="Arial, sans-serif" font-size="11">• Security Headers Policy</text>
  
  <text x="420" y="470" fill="#333" font-family="Arial, sans-serif" font-size="12" font-weight="bold">Performance:</text>
  <text x="420" y="490" fill="#333" font-family="Arial, sans-serif" font-size="11">• CloudFront Edge Caching</text>
  <text x="420" y="505" fill="#333" font-family="Arial, sans-serif" font-size="11">• Intelligent Tiering</text>
  <text x="420" y="520" fill="#333" font-family="Arial, sans-serif" font-size="11">• HTTP/2 &amp; HTTP/3</text>
  
  <text x="720" y="470" fill="#333" font-family="Arial, sans-serif" font-size="12" font-weight="bold">Reliability:</text>
  <text x="720" y="490" fill="#333" font-family="Arial, sans-serif" font-size="11">• Multi-Region Failover</text>
  <text x="720" y="505" fill="#333" font-family="Arial, sans-serif" font-size="11">• Cross-Region Replication</text>
  <text x="720" y="520" fill="#333" font-family="Arial, sans-serif" font-size="11">• S3 Versioning</text>
  
  <text x="1020" y="470" fill="#333" font-family="Arial, sans-serif" font-size="12" font-weight="bold">Monitoring:</text>
  <text x="1020" y="490" fill="#333" font-family="Arial, sans-serif" font-size="11">• CloudFront Access Logs</text>
  <text x="1020" y="505" fill="#333" font-family="Arial, sans-serif" font-size="11">• S3 Access Logging</text>
  <text x="1020" y="520" fill="#333" font-family="Arial, sans-serif" font-size="11">• Log Lifecycle Management</text>
  
  <!-- Data Flow Arrows -->
  <!-- Users to Route53 -->
  <path d="M 170 160 L 240 160" stroke="#4A90E2" stroke-width="2" fill="none" marker-end="url(#arrowhead)"/>
  <text x="205" y="155" text-anchor="middle" fill="#4A90E2" font-family="Arial, sans-serif" font-size="10">DNS Query</text>
  
  <!-- Route53 to CloudFront -->
  <path d="M 370 160 L 440 160" stroke="#4A90E2" stroke-width="2" fill="none" marker-end="url(#arrowhead)"/>
  <text x="405" y="155" text-anchor="middle" fill="#4A90E2" font-family="Arial, sans-serif" font-size="10">ALIAS</text>
  
  <!-- ACM to CloudFront -->
  <path d="M 370 290 Q 410 250 450 210" stroke="#DD344C" stroke-width="2" fill="none" marker-end="url(#arrowhead)"/>
  <text x="400" y="240" text-anchor="middle" fill="#DD344C" font-family="Arial, sans-serif" font-size="10">SSL</text>
  
  <!-- CloudFront to Primary S3 -->
  <path d="M 570 160 L 670 160" stroke="#8C4FFF" stroke-width="2" fill="none" marker-end="url(#arrowhead)"/>
  <text x="620" y="155" text-anchor="middle" fill="#8C4FFF" font-family="Arial, sans-serif" font-size="10">Primary Origin</text>
  
  <!-- CloudFront to Secondary S3 (Failover) -->
  <path d="M 570 180 Q 795 250 1040 180" stroke="#FF6B6B" stroke-width="2" fill="none" marker-end="url(#arrowhead)" stroke-dasharray="5,5"/>
  <text x="805" y="235" text-anchor="middle" fill="#FF6B6B" font-family="Arial, sans-serif" font-size="10">Failover Origin</text>
  
  <!-- Primary to Secondary S3 Replication -->
  <path d="M 800 180 L 1040 180" stroke="#7AA116" stroke-width="2" fill="none" marker-end="url(#arrowhead)"/>
  <text x="920" y="175" text-anchor="middle" fill="#7AA116" font-family="Arial, sans-serif" font-size="10">Cross-Region Replication</text>
  
  <!-- Primary S3 to Logs -->
  <path d="M 800 170 L 820 170" stroke="#7AA116" stroke-width="2" fill="none" marker-end="url(#arrowhead)"/>
  <text x="810" y="165" text-anchor="middle" fill="#7AA116" font-family="Arial, sans-serif" font-size="9">Logs</text>
  
  <!-- IAM Role to Replication -->
  <path d="M 800 310 Q 920 280 1040 200" stroke="#DD344C" stroke-width="2" fill="none" marker-end="url(#arrowhead)"/>
  <text x="920" y="260" text-anchor="middle" fill="#DD344C" font-family="Arial, sans-serif" font-size="10">Assumes Role</text>
  
  <!-- OAC to S3 buckets -->
  <path d="M 570 290 Q 620 240 670 200" stroke="#8C4FFF" stroke-width="2" fill="none" marker-end="url(#arrowhead)"/>
  <path d="M 570 290 Q 805 320 1040 200" stroke="#8C4FFF" stroke-width="2" fill="none" marker-end="url(#arrowhead)"/>
  
  <!-- Data Flow Legend -->
  <rect x="50" y="580" width="1300" height="80" rx="10" fill="#F8F9FA" stroke="#DEE2E6" stroke-width="1"/>
  <text x="700" y="605" text-anchor="middle" fill="#333" font-family="Arial, sans-serif" font-size="14" font-weight="bold">Data Flow</text>
  
  <line x1="100" y1="625" x2="130" y2="625" stroke="#4A90E2" stroke-width="2" marker-end="url(#arrowhead)"/>
  <text x="140" y="630" fill="#333" font-family="Arial, sans-serif" font-size="11">User Request Flow</text>
  
  <line x1="300" y1="625" x2="330" y2="625" stroke="#8C4FFF" stroke-width="2" marker-end="url(#arrowhead)"/>
  <text x="340" y="630" fill="#333" font-family="Arial, sans-serif" font-size="11">Content Delivery</text>
  
  <line x1="500" y1="625" x2="530" y2="625" stroke="#7AA116" stroke-width="2" marker-end="url(#arrowhead)"/>
  <text x="540" y="630" fill="#333" font-family="Arial, sans-serif" font-size="11">Data Replication</text>
  
  <line x1="700" y1="625" x2="730" y2="625" stroke="#FF6B6B" stroke-width="2" stroke-dasharray="5,5" marker-end="url(#arrowhead)"/>
  <text x="740" y="630" fill="#333" font-family="Arial, sans-serif" font-size="11">Failover Path</text>
  
  <line x1="900" y1="625" x2="930" y2="625" stroke="#DD344C" stroke-width="2" marker-end="url(#arrowhead)"/>
  <text x="940" y="630" fill="#333" font-family="Arial, sans-serif" font-size="11">Security/IAM</text>
  
  <!-- Cost Optimization Note -->
  <text x="700" y="785" text-anchor="middle" fill="#666" font-family="Arial, sans-serif" font-size="12" font-style="italic">
    Cost-optimized with S3 Intelligent Tiering, CloudFront PriceClass_200, and automated log lifecycle management
  </text>
  
  <!-- Environment Label -->
  <rect x="1200" y="20" width="180" height="30" rx="5" fill="#28A745"/>
  <text x="1290" y="40" text-anchor="middle" fill="white" font-family="Arial, sans-serif" font-size="12" font-weight="bold">
    Production Environment
  </text>
</svg>